#!OML:ASF H:\MichaelJackson\Top Level 1\Subject 1\Session 1\male.ASF
:FULLY-SPECIFIED
:DEGREES
576
root -6.67491 16.8335 28.3438 -355.858 -9.80238 -10.2523
lowerback 1.01778 4.7412 1.1439
upperback 0.17476 6.34213 1.32273
thorax -0.414857 3.17089 0.63018
lowerneck -7.3181 -2.05675 3.94109
upperneck 7.45237 -3.38634 2.2595
head 3.69731 -1.45822 -0.131483
rclavicle 7.85199e-015 -8.74653e-015
rhumerus -39.8587 -8.63365 -54.0813
rradius 51.1436
rwrist 2.75768
rhand -42.9784 -24.9877
rfingers 7.12502
rthumb -15.8375 -54.3599
lclavicle 7.85199e-015 -8.74653e-015
lhumerus -24.8276 -29.7056 53.4264
lradius 71.4506
lwrist 0.850564
lhand 19.9851 15.4726
lfingers 7.12502
lthumb 44.5212 39.1583
rfemur -21.2105 -15.3488 29.0145
rtibia 42.6414
rfoot -12.776 -9.46299
rtoes -16.2724
lfemur -28.6023 14.4581 -13.4245
ltibia 45.4285
lfoot -21.6118 14.3082
ltoes 28.3792
577
root -6.66211 16.8279 28.3996 -356.294 -8.81561 -9.83332
lowerback 1.08984 4.55729 0.901471
upperback 0.206709 6.09454 1.24846
thorax -0.438571 3.04733 0.685605
lowerneck -7.18196 -2.20499 3.85314
upperneck 7.37912 -3.5674 2.28219
head 3.64487 -1.55239 -0.115492
rclavicle -4.52235e-014 -9.54166e-015
rhumerus -40.8443 -8.50329 -53.6298
rradius 51.2507
rwrist 5.34808
rhand -44.9889 -25.26
rfingers 7.12502
rthumb -17.7729 -54.4678
lclavicle -4.52235e-014 -9.54166e-015
lhumerus -24.5655 -30.9191 55.2716
lradius 72.1183
lwrist 2.00947
lhand 18.3923 16.692
lfingers 7.12502
lthumb 43.0346 40.9257
rfemur -22.4243 -15.5311 28.2524
rtibia 45.6304
rfoot -11.5448 -9.6225
rtoes -17.6984
lfemur -28.1651 14.3525 -13.9263
ltibia 45.2807
lfoot -21.5833 13.3321
ltoes 28.8275
578
root -6.64933 16.824 28.4517 -356.751 -7.88017 -9.33422
lowerback 1.20507 4.36235 0.589745
upperback 0.251444 5.83111 1.135
thorax -0.474614 2.91584 0.73731
lowerneck -7.05218 -2.32003 3.80154
upperneck 7.32301 -3.70802 2.29315
head 3.59952 -1.62554 -0.107604
rclavicle -6.4605e-014 -9.54166e-015
rhumerus -41.7824 -8.35095 -53.2102
rradius 51.2678
rwrist 7.94969
rhand -46.42 -24.9966
rfingers 7.12502
rthumb -19.1497 -54.0739
lclavicle -6.4605e-014 -9.54166e-015
lhumerus -24.4151 -31.9608 57.1939
lradius 72.6331
lwrist 3.30367
lhand 16.6515 17.5781
lfingers 7.12502
lthumb 41.4039 42.3648
rfemur -23.8726 -15.4651 27.3227
rtibia 48.9451
rfoot -9.74845 -9.49214
rtoes -18.4797
lfemur -27.6926 14.4374 -14.5239
ltibia 45.0922
lfoot -21.4927 12.244
ltoes 29.2485
579
root -6.63763 16.8216 28.5004 -357.225 -6.99013 -8.7628
lowerback 1.36606 4.15772 0.20574
upperback 0.305652 5.55296 0.986251
thorax -0.527997 2.77698 0.791151
lowerneck -6.91719 -2.40558 3.77751
upperneck 7.27947 -3.81228 2.30367
head 3.55757 -1.67968 -0.102634
rclavicle -4.06515e-014 2.22639e-014
rhumerus -42.6843 -8.14878 -52.8432
rradius 51.2459
rwrist 10.2512
rhand -47.2559 -24.1735
rfingers 7.12502
rthumb -19.9533 -53.1691
lclavicle -4.06515e-014 2.22639e-014
lhumerus -24.3774 -32.8552 59.1781
lradius 72.9859
lwrist 4.55147
lhand 14.9447 18.0622
lfingers 7.12502
lthumb 39.7996 43.3484
rfemur -25.5186 -15.1285 26.2154
rtibia 52.4819
rfoot -7.36695 -8.9656
rtoes -18.2
lfemur -27.1695 14.6896 -15.1906
ltibia 44.8504
lfoot -21.3629 11.0265
ltoes 29.6991
580
root -6.62799 16.8212 28.5462 -357.719 -6.13614 -8.14366
lowerback 1.57269 3.94287 -0.240953
upperback 0.372902 5.25863 0.816402
thorax -0.59479 2.63008 0.85722
lowerneck -6.78152 -2.46575 3.76833
upperneck 7.24582 -3.88486 2.31876
head 3.51918 -1.71728 -0.0970965
rclavicle 9.23852e-014 6.36111e-015
rhumerus -43.5484 -7.89015 -52.5326
rradius 51.2129
rwrist 12.0525
rhand -47.4467 -22.7415
rfingers 7.12502
rthumb -20.1367 -51.7179
lclavicle 9.23852e-014 6.36111e-015
lhumerus -24.4444 -33.6185 61.2156
lradius 73.1712
lwrist 5.63729
lhand 13.393 18.1521
lfingers 7.12502
lthumb 38.3369 43.8588
rfemur -27.3025 -14.5177 24.9402
rtibia 56.1181
rfoot -4.45584 -7.94568
rtoes -16.5795
lfemur -26.5792 15.0861 -15.8837
ltibia 44.5494
lfoot -21.2042 9.66886
ltoes 30.2098
581
root -6.62112 16.8238 28.5895 -358.225 -5.29764 -7.5071
lowerback 1.8317 3.71651 -0.724583
upperback 0.442804 4.9458 0.633144
thorax -0.687024 2.47407 0.929038
lowerneck -6.64539 -2.50924 3.76902
upperneck 7.22722 -3.93716 2.34016
head 3.48619 -1.74395 -0.0902409
rclavicle 4.95968e-014 -1.11319e-014
rhumerus -44.3972 -7.5813 -52.2775
rradius 51.1981
rwrist 13.2295
rhand -46.9425 -20.8492
rfingers 7.12502
rthumb -19.652 -49.8759
lclavicle 4.95968e-014 -1.11319e-014
lhumerus -24.6155 -34.2951 63.2931
lradius 73.2004
lwrist 6.50339
lhand 12.0659 17.9074
lfingers 7.12502
lthumb 37.0831 43.9503
rfemur -29.1802 -13.6446 23.523
rtibia 59.7301
rfoot -1.1982 -6.36311
rtoes -13.6835
lfemur -25.9262 15.5878 -16.5623
ltibia 44.1886
lfoot -21.0118 8.18508
ltoes 30.782
582
root -6.61763 16.8296 28.6306 -358.731 -4.45284 -6.89471
lowerback 2.13566 3.47488 -1.2147
upperback 0.514511 4.60909 0.452887
thorax -0.79957 2.30637 1.00805
lowerneck -6.51317 -2.54015 3.76475
upperneck 7.21765 -3.97379 2.37492
head 3.45774 -1.7622 -0.0774941
rclavicle -5.19325e-014 2.38542e-015
rhumerus -45.2398 -7.26244 -52.0524
rradius 51.2011
rwrist 13.7857
rhand -45.6664 -18.6253
rfingers 7.12502
rthumb -18.4248 -47.7727
lclavicle -5.19325e-014 2.38542e-015
lhumerus -24.8697 -34.9145 65.4003
lradius 73.0818
lwrist 7.15038
lhand 11.0086 17.4191
lfingers 7.12502
lthumb 36.0823 43.7154
rfemur -31.1076 -12.5288 22.0096
rtibia 63.2021
rfoot 2.10697 -4.16541
rtoes -9.99599
lfemur -25.2258 16.1521 -17.178
ltibia 43.7773
lfoot -20.7721 6.60605
ltoes 31.4013
583
root -6.61778 16.8387 28.6697 -359.227 -3.58607 -6.33845
lowerback 2.47705 3.21588 -1.68351
upperback 0.586882 4.24578 0.286252
thorax -0.927558 2.12569 1.0911
lowerneck -6.38691 -2.56289 3.74837
upperneck 7.20857 -4.00001 2.42588
head 3.43141 -1.77491 -0.0569507
rclavicle 2.77802e-014 1.27222e-014
rhumerus -46.0816 -6.98044 -51.8301
rradius 51.2132
rwrist 13.7749
rhand -43.6003 -16.3182
rfingers 7.12502
rthumb -16.4364 -45.6419
lclavicle 2.77802e-014 1.27222e-014
lhumerus -25.1857 -35.5118 67.5228
lradius 72.8325
lwrist 7.62281
lhand 10.2768 16.8404
lfingers 7.12502
lthumb 35.3889 43.3048
rfemur -33.051 -11.197 20.4392
rtibia 66.439
rfoot 5.12008 -1.32394
rtoes -6.21185
lfemur -24.4997 16.7248 -17.6971
ltibia 43.3314
lfoot -20.4597 4.99462
ltoes 31.9537
584
root -6.62161 16.851 28.7068 -359.703 -2.68508 -5.87023
lowerback 2.85209 2.93616 -2.09688
upperback 0.656715 3.8522 0.139914
thorax -1.06994 1.93026 1.16717
lowerneck -6.28747 -2.58111 3.72466
upperneck 7.20703 -4.02191 2.48513
head 3.41336 -1.78493 -0.0327684
rclavicle -1.24737e-014 7.15625e-015
rhumerus -46.9281 -6.78523 -51.5832
rradius 51.2269
rwrist 13.2812
rhand -40.7444 -14.1772
rfingers 7.12502
rthumb -13.6853 -43.7072
lclavicle -1.24737e-014 7.15625e-015
lhumerus -25.5453 -36.1214 69.642
lradius 72.4759
lwrist 7.98902
lhand 9.8917 16.2942
lfingers 7.12502
lthumb 35.0236 42.8447
rfemur -34.9921 -9.68248 18.8516
rtibia 69.362
rfoot 7.51156 2.10333
rtoes -2.85639
lfemur -23.7755 17.2496 -18.091
ltibia 42.8724
lfoot -20.0957 3.40395
ltoes 32.4592
585
root -6.62898 16.8653 28.7417 -360.151 -1.74784 -5.50696
lowerback 3.24938 2.63612 -2.43776
upperback 0.729335 3.43015 0.0199268
thorax -1.21461 1.72081 1.23441
lowerneck -6.21527 -2.59655 3.69212
upperneck 7.19363 -4.04085 2.55163
head 3.39688 -1.79352 -0.00495475
rclavicle 1.2921e-014 4.77083e-015
rhumerus -47.7667 -6.71344 -51.2888
rradius 51.216
rwrist 12.4055
rhand -37.1872 -12.3808
rfingers 7.12502
rthumb -10.2552 -42.1108
lclavicle 1.2921e-014 4.77083e-015
lhumerus -25.9224 -36.7685 71.7427
lradius 72.0371
lwrist 8.33584
lhand 9.87232 15.9294
lfingers 7.12502
lthumb 35.0052 42.4842
rfemur -36.9206 -8.0283 17.2725
rtibia 71.9061
rfoot 9.07767 5.97356
rtoes -0.449138
lfemur -23.0766 17.6753 -18.3498
ltibia 42.4203
lfoot -19.6787 1.90344
ltoes 32.822
586
root -6.63963 16.8812 28.7741 -360.569 -0.778743 -5.25899
lowerback 3.66728 2.31661 -2.68922
upperback 0.805752 2.98231 -0.0736478
thorax -1.35948 1.49855 1.28397
lowerneck -6.16582 -2.60855 3.64785
upperneck 7.15422 -4.05565 2.63481
head 3.3765 -1.80016 0.0303148
rclavicle -1.70955e-014 7.95139e-016
rhumerus -48.5929 -6.7754 -50.9448
rradius 51.1628
rwrist 11.2424
rhand -33.0749 -11.1257
rfingers 7.12502
rthumb -6.28655 -41.0124
lclavicle -1.70955e-014 7.95139e-016
lhumerus -26.3068 -37.4741 73.8113
lradius 71.5414
lwrist 8.72838
lhand 10.2074 15.8417
lfingers 7.12502
lthumb 35.3231 42.3217
rfemur -38.8314 -6.27861 15.7187
rtibia 74.0056
rfoot 9.79941 10.0686
rtoes 0.632076
lfemur -22.4183 17.9723 -18.4726
ltibia 41.984
lfoot -19.2335 0.534122
ltoes 33.0643
